<mxfile host="app.diagrams.net" modified="2023-03-29T12:08:51.163Z" agent="Mozilla/5.0 (Windows NT 10.0; Win64; x64) AppleWebKit/537.36 (KHTML, like Gecko) Chrome/111.0.0.0 Safari/537.36" etag="kSoknZ-A-g8Tyy5rJUOv" version="21.1.1" type="github">
  <diagram name="第 1 页" id="xfCCole29WGeKrCOejfP">
    <mxGraphModel dx="552" dy="298" grid="0" gridSize="10" guides="1" tooltips="1" connect="1" arrows="1" fold="1" page="1" pageScale="1" pageWidth="827" pageHeight="1169" math="0" shadow="0">
      <root>
        <mxCell id="0" />
        <mxCell id="1" parent="0" />
        <mxCell id="-XhoZ8y8NFRUwULXEBK8-5" value="" style="edgeStyle=orthogonalEdgeStyle;rounded=0;orthogonalLoop=1;jettySize=auto;html=1;fontSize=16;fontStyle=1" edge="1" parent="1" source="-XhoZ8y8NFRUwULXEBK8-1" target="-XhoZ8y8NFRUwULXEBK8-4">
          <mxGeometry relative="1" as="geometry" />
        </mxCell>
        <mxCell id="-XhoZ8y8NFRUwULXEBK8-1" value="(NH&lt;sub style=&quot;font-size: 16px;&quot;&gt;4&lt;/sub&gt;)&lt;sub style=&quot;font-size: 16px;&quot;&gt;2&lt;/sub&gt;S&lt;sub style=&quot;font-size: 16px;&quot;&gt;2&lt;/sub&gt;O&lt;sub style=&quot;font-size: 16px;&quot;&gt;8&lt;/sub&gt;" style="rounded=0;whiteSpace=wrap;html=1;fontSize=16;fontStyle=1" vertex="1" parent="1">
          <mxGeometry x="106" y="143" width="120" height="60" as="geometry" />
        </mxCell>
        <mxCell id="-XhoZ8y8NFRUwULXEBK8-3" value="" style="edgeStyle=orthogonalEdgeStyle;rounded=0;orthogonalLoop=1;jettySize=auto;html=1;fontSize=16;fontStyle=1" edge="1" parent="1" source="-XhoZ8y8NFRUwULXEBK8-2" target="-XhoZ8y8NFRUwULXEBK8-1">
          <mxGeometry relative="1" as="geometry" />
        </mxCell>
        <mxCell id="-XhoZ8y8NFRUwULXEBK8-2" value="MnSO&lt;sub style=&quot;font-size: 16px;&quot;&gt;4&lt;/sub&gt;&lt;br style=&quot;font-size: 16px;&quot;&gt;NaOH" style="text;html=1;align=center;verticalAlign=middle;resizable=0;points=[];autosize=1;strokeColor=none;fillColor=none;fontSize=16;fontStyle=1" vertex="1" parent="1">
          <mxGeometry x="130" y="43" width="73" height="55" as="geometry" />
        </mxCell>
        <mxCell id="-XhoZ8y8NFRUwULXEBK8-9" value="" style="edgeStyle=orthogonalEdgeStyle;rounded=0;orthogonalLoop=1;jettySize=auto;html=1;fontSize=16;fontStyle=1" edge="1" parent="1" source="-XhoZ8y8NFRUwULXEBK8-4" target="-XhoZ8y8NFRUwULXEBK8-8">
          <mxGeometry relative="1" as="geometry" />
        </mxCell>
        <mxCell id="-XhoZ8y8NFRUwULXEBK8-4" value="Mn(OOH)&lt;sub style=&quot;font-size: 16px;&quot;&gt;2&lt;/sub&gt;" style="rounded=0;whiteSpace=wrap;html=1;fontSize=16;fontStyle=1" vertex="1" parent="1">
          <mxGeometry x="306" y="143" width="120" height="60" as="geometry" />
        </mxCell>
        <mxCell id="-XhoZ8y8NFRUwULXEBK8-7" value="" style="edgeStyle=orthogonalEdgeStyle;rounded=0;orthogonalLoop=1;jettySize=auto;html=1;fontSize=16;fontStyle=1" edge="1" parent="1" source="-XhoZ8y8NFRUwULXEBK8-6" target="-XhoZ8y8NFRUwULXEBK8-4">
          <mxGeometry relative="1" as="geometry" />
        </mxCell>
        <mxCell id="-XhoZ8y8NFRUwULXEBK8-6" value="LiOH·H&lt;sub style=&quot;font-size: 16px;&quot;&gt;2&lt;/sub&gt;O" style="text;html=1;align=center;verticalAlign=middle;resizable=0;points=[];autosize=1;strokeColor=none;fillColor=none;fontSize=16;fontStyle=1" vertex="1" parent="1">
          <mxGeometry x="319.5" y="54" width="94" height="35" as="geometry" />
        </mxCell>
        <mxCell id="-XhoZ8y8NFRUwULXEBK8-8" value="Li&lt;sub style=&quot;font-size: 16px;&quot;&gt;4&lt;/sub&gt;Mn&lt;sub style=&quot;font-size: 16px;&quot;&gt;5&lt;/sub&gt;O&lt;sub style=&quot;font-size: 16px;&quot;&gt;12&lt;/sub&gt;" style="rounded=0;whiteSpace=wrap;html=1;fontSize=16;fontStyle=1" vertex="1" parent="1">
          <mxGeometry x="506" y="143" width="120" height="60" as="geometry" />
        </mxCell>
        <mxCell id="-XhoZ8y8NFRUwULXEBK8-10" value="90 ℃&amp;nbsp; 8 h" style="text;html=1;align=center;verticalAlign=middle;resizable=0;points=[];autosize=1;strokeColor=none;fillColor=none;fontSize=16;fontStyle=1" vertex="1" parent="1">
          <mxGeometry x="220" y="145" width="88" height="31" as="geometry" />
        </mxCell>
        <mxCell id="-XhoZ8y8NFRUwULXEBK8-11" value="HTSP" style="text;html=1;align=center;verticalAlign=middle;resizable=0;points=[];autosize=1;strokeColor=none;fillColor=none;fontSize=16;fontStyle=1" vertex="1" parent="1">
          <mxGeometry x="430" y="146" width="61" height="31" as="geometry" />
        </mxCell>
        <mxCell id="-XhoZ8y8NFRUwULXEBK8-12" value="Temp" style="text;html=1;align=center;verticalAlign=middle;resizable=0;points=[];autosize=1;strokeColor=none;fillColor=none;fontColor=#FF0000;fontSize=16;fontStyle=1" vertex="1" parent="1">
          <mxGeometry x="429" y="172" width="59" height="31" as="geometry" />
        </mxCell>
        <mxCell id="-XhoZ8y8NFRUwULXEBK8-13" value="Li / Mn" style="text;html=1;align=center;verticalAlign=middle;resizable=0;points=[];autosize=1;strokeColor=none;fillColor=none;rotation=90;fontColor=#FF0000;fontSize=16;fontStyle=1" vertex="1" parent="1">
          <mxGeometry x="347" y="98" width="69" height="31" as="geometry" />
        </mxCell>
      </root>
    </mxGraphModel>
  </diagram>
</mxfile>
